<?xml version="1.0" standalone="no"?><!DOCTYPE svg PUBLIC "-//W3C//DTD SVG 1.1//EN" "http://www.w3.org/Graphics/SVG/1.1/DTD/svg11.dtd"><svg t="1563180397092" class="icon" viewBox="0 0 1024 1024" version="1.1" xmlns="http://www.w3.org/2000/svg" p-id="5272" xmlns:xlink="http://www.w3.org/1999/xlink" width="200" height="200"><defs><style type="text/css"></style></defs><path d="M512 0C226.742857 0 0 226.742857 0 512s226.742857 512 512 512 512-226.742857 512-512-226.742857-512-512-512z m241.371429 702.171429c14.628571 14.628571 14.628571 29.257143 0 43.885714-14.628571 14.628571-29.257143 14.628571-43.885715 0L512 555.885714l-197.485714 190.171429c-14.628571 14.628571-29.257143 14.628571-43.885715 0-14.628571-14.628571-14.628571-29.257143 0-43.885714L468.114286 512 270.628571 321.828571c-14.628571-14.628571-14.628571-29.257143 0-43.885714 14.628571-14.628571 29.257143-14.628571 43.885715 0L512 468.114286l197.485714-190.171429c14.628571-14.628571 29.257143-14.628571 43.885715 0 14.628571 14.628571 14.628571 29.257143 0 43.885714L555.885714 512l197.485715 190.171429z" fill="#F5222D" p-id="5273"></path></svg>