<svg xmlns="http://www.w3.org/2000/svg" viewBox="0 0 200 200"><switch><g><path d="M143.455 70.312h-27.12l.07 47.637c0 .821-.285 1.618-.855 2.211-.57.615-1.311.934-2.063.934H86.942a2.785 2.785 0 0 1-2.062-.934c-.581-.593-.861-1.39-.861-2.211l.058-47.637H56.968c-.388 0-.747-.24-.912-.655a1.108 1.108 0 0 1 .257-1.14L98.23 27.395c.523-.513 1.22-.832 1.971-.832.776 0 1.47.319 1.995.832l41.921 41.123c.285.279.4.724.241 1.14a.947.947 0 0 1-.903.654zm33.547 101.178c-.581 1.937-2.597 3.51-4.49 3.51H27.684c-1.892 0-3.914-1.573-4.507-3.487L12.699 137.19c-.581-1.914.159-4.49 1.635-5.743l26.282-21.72c1.487-1.23 4.25-1.916 6.142-1.916h15.491l-25.16 26.562h25.258l12.305 19.531h50.583l12.853-19.531h25.241l-25.32-26.562h15.212c1.88 0 4.661.686 6.142 1.916l26.277 21.72c1.481 1.253 2.234 3.852 1.676 5.766l-10.314 34.277z" /></g></switch></svg>